<svg
  xmlns="http://www.w3.org/2000/svg"
  width="80"
  height="81"
  fill="none"
  viewBox="0 0 80 81"
>
  <path
    fill="#999"
    d="M40.034 4.5c-14.057 0-25.781 11.323-25.781 25.781 0 5.5 1.653 10.405 4.825 15.001L38.06 74.904c.921 1.44 3.027 1.437 3.946 0l19.066-29.723a25.667 25.667 0 0 0 4.742-14.9C65.815 16.066 54.25 4.5 40.035 4.5Z"
  />
  <path
    fill="#fff"
    d="M52.62 24.382c0 .435-.217.762-.544.98l-14.364 8.38v13.493h2.176c.544 0 1.088.544 1.088 1.088a1.09 1.09 0 0 1-1.088 1.089h-6.53c-.652 0-1.087-.436-1.087-1.089a1.09 1.09 0 0 1 1.088-1.088h2.176V15.676c0-.435.327-.761.544-.98 0-.108.87-.217 1.089 0h.108l14.8 8.707c.327.218.544.653.544.98Z"
  />
</svg>
